<mxfile host="app.diagrams.net" modified="2021-10-20T09:09:47.600Z" agent="5.0 (Windows NT 10.0; Win64; x64) AppleWebKit/537.36 (KHTML, like Gecko) Chrome/93.0.4577.82 YaBrowser/21.9.1.684 Yowser/2.5 Safari/537.36" etag="iIjwUhIaosPMZ-eq5rQa" version="15.5.2" type="github">
  <diagram id="V3mEnlDogxbEyrrkgHN0" name="Page-1">
    <mxGraphModel dx="990" dy="543" grid="1" gridSize="10" guides="1" tooltips="1" connect="1" arrows="1" fold="1" page="1" pageScale="1" pageWidth="827" pageHeight="1169" math="0" shadow="0">
      <root>
        <mxCell id="0" />
        <mxCell id="1" parent="0" />
        <mxCell id="mN0xdmjhnZ_x7cbttP8J-13" style="edgeStyle=orthogonalEdgeStyle;rounded=0;orthogonalLoop=1;jettySize=auto;html=1;entryX=0.5;entryY=0;entryDx=0;entryDy=0;" parent="1" source="mN0xdmjhnZ_x7cbttP8J-1" target="mN0xdmjhnZ_x7cbttP8J-2" edge="1">
          <mxGeometry relative="1" as="geometry" />
        </mxCell>
        <mxCell id="mN0xdmjhnZ_x7cbttP8J-14" style="edgeStyle=orthogonalEdgeStyle;rounded=0;orthogonalLoop=1;jettySize=auto;html=1;" parent="1" source="mN0xdmjhnZ_x7cbttP8J-1" target="mN0xdmjhnZ_x7cbttP8J-3" edge="1">
          <mxGeometry relative="1" as="geometry" />
        </mxCell>
        <mxCell id="mN0xdmjhnZ_x7cbttP8J-1" value="Обнаружение лесных пожаров" style="rounded=1;whiteSpace=wrap;html=1;" parent="1" vertex="1">
          <mxGeometry x="310" y="100" width="180" height="60" as="geometry" />
        </mxCell>
        <mxCell id="mN0xdmjhnZ_x7cbttP8J-16" style="edgeStyle=orthogonalEdgeStyle;rounded=0;orthogonalLoop=1;jettySize=auto;html=1;" parent="1" source="mN0xdmjhnZ_x7cbttP8J-2" target="mN0xdmjhnZ_x7cbttP8J-4" edge="1">
          <mxGeometry relative="1" as="geometry" />
        </mxCell>
        <mxCell id="mN0xdmjhnZ_x7cbttP8J-2" value="Изучение текущих методов" style="rounded=1;whiteSpace=wrap;html=1;" parent="1" vertex="1">
          <mxGeometry x="208" y="210" width="120" height="60" as="geometry" />
        </mxCell>
        <mxCell id="mN0xdmjhnZ_x7cbttP8J-15" style="edgeStyle=orthogonalEdgeStyle;rounded=0;orthogonalLoop=1;jettySize=auto;html=1;" parent="1" source="mN0xdmjhnZ_x7cbttP8J-3" target="mN0xdmjhnZ_x7cbttP8J-9" edge="1">
          <mxGeometry relative="1" as="geometry" />
        </mxCell>
        <mxCell id="mN0xdmjhnZ_x7cbttP8J-3" value="Изучение информации о местности" style="rounded=1;whiteSpace=wrap;html=1;" parent="1" vertex="1">
          <mxGeometry x="460" y="210" width="120" height="60" as="geometry" />
        </mxCell>
        <mxCell id="mN0xdmjhnZ_x7cbttP8J-18" style="edgeStyle=orthogonalEdgeStyle;rounded=0;orthogonalLoop=1;jettySize=auto;html=1;" parent="1" source="mN0xdmjhnZ_x7cbttP8J-4" target="mN0xdmjhnZ_x7cbttP8J-5" edge="1">
          <mxGeometry relative="1" as="geometry" />
        </mxCell>
        <mxCell id="mN0xdmjhnZ_x7cbttP8J-4" value="Выбор подходящего из методов" style="rounded=1;whiteSpace=wrap;html=1;" parent="1" vertex="1">
          <mxGeometry x="208" y="320" width="120" height="60" as="geometry" />
        </mxCell>
        <mxCell id="mN0xdmjhnZ_x7cbttP8J-10" style="edgeStyle=orthogonalEdgeStyle;rounded=0;orthogonalLoop=1;jettySize=auto;html=1;entryX=0.5;entryY=0;entryDx=0;entryDy=0;" parent="1" source="mN0xdmjhnZ_x7cbttP8J-5" target="mN0xdmjhnZ_x7cbttP8J-6" edge="1">
          <mxGeometry relative="1" as="geometry" />
        </mxCell>
        <mxCell id="mN0xdmjhnZ_x7cbttP8J-11" style="edgeStyle=orthogonalEdgeStyle;rounded=0;orthogonalLoop=1;jettySize=auto;html=1;" parent="1" source="mN0xdmjhnZ_x7cbttP8J-5" target="mN0xdmjhnZ_x7cbttP8J-8" edge="1">
          <mxGeometry relative="1" as="geometry" />
        </mxCell>
        <mxCell id="mN0xdmjhnZ_x7cbttP8J-12" style="edgeStyle=orthogonalEdgeStyle;rounded=0;orthogonalLoop=1;jettySize=auto;html=1;entryX=0.5;entryY=0;entryDx=0;entryDy=0;" parent="1" source="mN0xdmjhnZ_x7cbttP8J-5" target="mN0xdmjhnZ_x7cbttP8J-7" edge="1">
          <mxGeometry relative="1" as="geometry" />
        </mxCell>
        <mxCell id="mN0xdmjhnZ_x7cbttP8J-5" value="Обнаружение очагов пожара при помощи видео вышек" style="rounded=1;whiteSpace=wrap;html=1;" parent="1" vertex="1">
          <mxGeometry x="208" y="420" width="120" height="60" as="geometry" />
        </mxCell>
        <mxCell id="mN0xdmjhnZ_x7cbttP8J-6" value="Автоматическое определение &quot;Дым точки&quot;" style="rounded=1;whiteSpace=wrap;html=1;" parent="1" vertex="1">
          <mxGeometry x="75" y="540" width="120" height="60" as="geometry" />
        </mxCell>
        <mxCell id="mN0xdmjhnZ_x7cbttP8J-7" value="Визуальное наблюдение &quot;Дым точки&quot;" style="rounded=1;whiteSpace=wrap;html=1;" parent="1" vertex="1">
          <mxGeometry x="335" y="540" width="120" height="60" as="geometry" />
        </mxCell>
        <mxCell id="DajCzqpPM2udY60xIiEC-5" style="edgeStyle=orthogonalEdgeStyle;rounded=0;orthogonalLoop=1;jettySize=auto;html=1;exitX=0.5;exitY=1;exitDx=0;exitDy=0;entryX=0.5;entryY=0;entryDx=0;entryDy=0;" edge="1" parent="1" source="mN0xdmjhnZ_x7cbttP8J-8" target="DajCzqpPM2udY60xIiEC-4">
          <mxGeometry relative="1" as="geometry" />
        </mxCell>
        <mxCell id="mN0xdmjhnZ_x7cbttP8J-8" value="Выезд сотрудника на возникновение событие" style="rounded=1;whiteSpace=wrap;html=1;" parent="1" vertex="1">
          <mxGeometry x="208" y="540" width="120" height="60" as="geometry" />
        </mxCell>
        <mxCell id="DajCzqpPM2udY60xIiEC-2" style="edgeStyle=orthogonalEdgeStyle;rounded=0;orthogonalLoop=1;jettySize=auto;html=1;exitX=0.5;exitY=1;exitDx=0;exitDy=0;" edge="1" parent="1" source="mN0xdmjhnZ_x7cbttP8J-9" target="DajCzqpPM2udY60xIiEC-1">
          <mxGeometry relative="1" as="geometry" />
        </mxCell>
        <mxCell id="mN0xdmjhnZ_x7cbttP8J-9" value="Автоматический учет лесных пожаров" style="rounded=1;whiteSpace=wrap;html=1;" parent="1" vertex="1">
          <mxGeometry x="455" y="310" width="130" height="70" as="geometry" />
        </mxCell>
        <mxCell id="DajCzqpPM2udY60xIiEC-1" value="Автоматизированный расчет ущерба от лесного пожара" style="rounded=1;whiteSpace=wrap;html=1;" vertex="1" parent="1">
          <mxGeometry x="455" y="410" width="130" height="70" as="geometry" />
        </mxCell>
        <mxCell id="DajCzqpPM2udY60xIiEC-4" value="Возможность определения причин возгорания" style="rounded=1;whiteSpace=wrap;html=1;" vertex="1" parent="1">
          <mxGeometry x="200" y="630" width="120" height="60" as="geometry" />
        </mxCell>
      </root>
    </mxGraphModel>
  </diagram>
</mxfile>
